<?xml version="1.0" encoding="utf-8"?>
<!-- Generator: Adobe Illustrator 26.0.3, SVG Export Plug-In . SVG Version: 6.00 Build 0)  -->
<svg version="1.0" id="katman_1" xmlns="http://www.w3.org/2000/svg" xmlns:xlink="http://www.w3.org/1999/xlink" x="0px" y="0px"
	 viewBox="0 0 800 600" style="enable-background:new 0 0 800 600;" xml:space="preserve">
<style type="text/css">
	.st0{fill:#0098DB;}
	.st1{clip-path:url(#SVGID_00000162328559075061757840000013464664650817651643_);}
	.st2{clip-path:url(#SVGID_00000035529342807464310740000008564752114110909112_);}
	.st3{fill:#077BBF;}
	.st4{clip-path:url(#SVGID_00000057857244363267051470000006744482807086553009_);fill:#007BC1;}
	.st5{clip-path:url(#SVGID_00000057857244363267051470000006744482807086553009_);fill:#099ADD;}
	.st6{clip-path:url(#SVGID_00000005949865674372927130000012554552133342048425_);}
	.st7{clip-path:url(#SVGID_00000085968836942289082510000018336989095218383021_);}
	.st8{fill:#099ADC;}
	.st9{fill:#67C0EC;}
</style>
<g>
	<path class="st0" d="M268.5,356.4v6h-44.2v-71.5h42.1v6h-35.8v25.5h31.3v5.4h-31.3v28.8L268.5,356.4z M268.5,356.4"/>
	<path class="st0" d="M304.9,333.6h-16.5v28.8H282v-71.5h22.8c16.2,0,23.1,6.3,23.1,21.3C328,327.2,321.4,333.6,304.9,333.6
		L304.9,333.6z M304.9,296.6h-16.5v31.5h16.5c11.1,0,16.8-3.9,16.8-15.9C321.7,300.2,316.3,296.6,304.9,296.6L304.9,296.6z
		 M304.9,296.6"/>
	<path class="st0" d="M356.9,363.9c-7.2,0.1-14.3-1.9-20.4-5.7l1.2-6c5.7,3.7,12.4,5.6,19.2,5.4c11.4,0,17.1-5.4,17.1-14.7
		c0-19.2-36.7-10.8-36.7-34.3c0-10.8,6.9-18.9,22.2-18.9c6.3-0.1,12.6,1.3,18.3,3.9l-1.2,5.7c-5.3-2.3-11-3.6-16.8-3.6
		c-11.7,0-16.5,6-16.5,12.9c0,18.3,36.9,9.6,36.9,34.3C380,355.8,372.2,363.9,356.9,363.9L356.9,363.9z M356.9,363.9"/>
	<path class="st0" d="M402.5,358.2l1.8-11.4c2.9,1.7,6.1,3,9.3,3.9c3.2,1,6.6,1.5,9.9,1.5c3.4,0.3,6.8-0.5,9.6-2.4
		c2.1-1.8,3.2-4.5,3-7.2c0.1-2.1-0.8-4.1-2.4-5.4c-1.9-1.5-4-2.7-6.3-3.6l-8.1-3c-2.8-1-5.6-2.3-8.1-3.9c-2.4-1.6-4.4-3.6-6-6
		c-1.8-2.9-2.6-6.2-2.4-9.6c0-2.8,0.5-5.5,1.5-8.1c1-2.5,2.5-4.8,4.5-6.6c2.2-2,4.7-3.5,7.5-4.5c3.5-1.1,7.2-1.6,10.8-1.5
		c3.4,0,6.8,0.3,10.2,0.9c3.1,0.5,6.1,1.5,9,2.7l-1.8,11.1l-8.4-2.4l-8.4-0.9l-6,0.6c-1.4,0.3-2.7,1-3.9,1.8
		c-0.9,0.7-1.7,1.6-2.1,2.7c-0.4,1-0.6,2-0.6,3c-0.1,2,0.8,3.9,2.4,5.1c2,1.4,4.1,2.5,6.3,3.3l8.1,3c2.9,0.9,5.6,2.3,8.1,3.9
		c2.4,1.6,4.4,3.6,6,6c1.7,2.9,2.6,6.2,2.4,9.6c0.3,6.1-2.1,12.1-6.6,16.2c-5.2,4.3-11.9,6.4-18.6,6c-3.8,0-7.7-0.5-11.4-1.5
		C408.6,360.7,405.5,359.7,402.5,358.2L402.5,358.2z M402.5,358.2"/>
	<path class="st0" d="M602.6,291.5h11.7v14.1h13.2v9h-13.2v31.5c-0.3,2,0.4,4,1.8,5.4c1.6,1.1,3.5,1.7,5.4,1.5h2.4l2.1-0.6l0.9,8.7
		l-3.9,0.9H618c-4.3,0.3-8.6-1.2-11.7-4.2c-2.8-3.4-4.2-7.7-3.9-12L602.6,291.5z M602.6,291.5"/>
	<path class="st0" d="M513.4,361.8v-56.2l8.4-0.6l1.8,5.4c2.1-2,4.5-3.5,7.2-4.5c2.8-1,5.7-1.5,8.7-1.5c5.3-0.3,10.4,1.7,14.1,5.4
		c3.7,4.3,5.6,10,5.1,15.6v36.4h-12v-36.4c0.3-2.9-0.7-5.8-2.7-7.8c-2.3-1.8-5.2-2.6-8.1-2.4c-2.2,0-4.3,0.6-6.3,1.5
		c-1.9,0.8-3.6,2.2-4.8,3.9v41.2H513.4z M513.4,361.8"/>
	<path class="st0" d="M573.2,292.1c0-3.8,2.4-5.7,7.2-5.7c4.8,0,7.2,1.9,7.2,5.7c0,3.8-2.4,5.7-7.2,5.7c-1.9,0.2-3.8-0.3-5.4-1.2
		C573.7,295.5,573,293.8,573.2,292.1L573.2,292.1z M574.1,361.8v-56.2l12-0.6v56.8H574.1z M574.1,361.8"/>
	<path class="st0" d="M688.6,321.2c-0.2-4.6,1.7-9,5.1-12c4.5-3.4,10-5,15.6-4.5c5.4,0,10.7,1.1,15.6,3.3l-0.9,9.9
		c-2.4-1-4.9-1.7-7.5-2.1l-7.2-0.6c-2.3-0.1-4.6,0.4-6.6,1.5c-1.6,1-2.5,2.7-2.4,4.5c0,1.6,0.8,3.1,2.1,3.9l5.1,2.4l6.6,2.1
		c2.3,0.7,4.5,1.7,6.6,3c2,1.2,3.8,2.8,5.1,4.8c1.5,2.3,2.2,5.1,2.1,7.8c0,2.6-0.4,5.1-1.2,7.5c-0.7,2.2-2,4.1-3.6,5.7
		c-1.8,1.6-4,2.8-6.3,3.6c-3,0.9-6.2,1.3-9.3,1.2c-3.2,0.1-6.4-0.2-9.6-0.9c-2.9-0.7-5.6-1.8-8.1-3.3l1.5-9.9c2.4,1.5,5,2.7,7.8,3.3
		c2.7,0.7,5.6,1.1,8.4,1.2c2.7,0.2,5.4-0.5,7.5-2.1c1.5-1.3,2.4-3.1,2.4-5.1c0-1.7-0.8-3.2-2.1-4.2c-1.6-1.2-3.3-2.1-5.1-2.7
		l-6.6-2.1c-2.3-0.7-4.5-1.8-6.6-3c-2-1.2-3.8-2.8-5.1-4.8C689.9,327.3,688.7,324.3,688.6,321.2L688.6,321.2z M688.6,321.2"/>
	<path class="st0" d="M500.5,316.4c-1.2-5.2-5.1-9.3-10.2-10.8c-3.2-0.9-6.6-1.3-9.9-1.2c-6.5-0.1-12.9,1.1-18.9,3.6l1.2,9.9
		l7.5-2.4l8.1-0.9c3.1-0.3,6.3,0.4,9,2.1c2,2,3,4.7,2.7,7.5V345c0,1.1-0.3,2.1-0.9,3c-0.6,0.9-1.5,1.8-2.4,2.4l-3.6,1.8l-4.2,0.6
		c-2.5,0.1-4.9-0.7-6.9-2.1c-2-1.7-3-4.3-2.7-6.9c-0.2-2.5,0.8-4.9,2.7-6.6c2.5-1.6,5.5-2.4,8.4-2.1l5.1,0.6h0.6v-7.8h-1.5l-6.3-0.6
		c-5.5-0.4-11,1.3-15.3,4.8c-3.5,3.3-5.3,7.9-5.1,12.6c-1.4,10.3,7.1,19.2,17.4,18.3c3.2,0.1,6.4-0.5,9.3-1.8
		c2.6-1.1,4.8-2.9,6.6-5.1h0.3l1.2,6h9v-35.8C501.7,323,501.3,319.7,500.5,316.4L500.5,316.4z M500.5,316.4"/>
	<path class="st0" d="M677.4,316.4c-1.2-5.2-5.1-9.3-10.2-10.8c-3.2-0.9-6.6-1.3-9.9-1.2c-6.5-0.1-12.9,1.1-18.9,3.6l1.2,9.9
		l7.5-2.4l8.1-0.9c3.2-0.3,6.3,0.4,9,2.1c2,2,3,4.7,2.7,7.5V345c0,1.1-0.3,2.1-0.9,3c-0.6,0.9-1.5,1.8-2.4,2.4l-3.6,1.8l-4.2,0.6
		c-2.5,0.1-4.9-0.7-6.9-2.1c-2-1.7-3-4.3-2.7-6.9c-0.2-2.5,0.8-4.9,2.7-6.6c2.5-1.6,5.4-2.4,8.4-2.1l5.1,0.6h0.6v-7.8h-1.5l-6.3-0.6
		c-5.5-0.4-11,1.3-15.3,4.8c-3.5,3.3-5.3,7.9-5.1,12.6c-1.4,10.3,7.1,19.2,17.4,18.3c3.2,0.1,6.4-0.5,9.3-1.8
		c2.6-1.1,4.9-2.9,6.6-5.1h0.3l1.2,6h9v-35.8C678.7,323,678.3,319.7,677.4,316.4L677.4,316.4z M677.4,316.4"/>
	<g>
		<defs>
			<path id="SVGID_1_" d="M165.5,244c-1.2-13.2-8.4-20.1-18-20.1c-5.4,0.2-10.5,1.9-15,4.8c-10.9,6.9-19.6,16.7-25.2,28.2
				c-3,5.7-4.8,9.9-7.8,16.5l2.4,3.6c3.6,5.1,17.7,29.7,17.7,29.7l-23.1,6.6l45.1-13.2c1.9-0.4,3.7-1.4,5.1-2.7
				C159.2,281.9,167.6,264.4,165.5,244L165.5,244z M165.5,244"/>
		</defs>
		<defs>
			<rect id="SVGID_00000061460216928893751080000016744697276224873382_" x="69" y="223.9" width="661" height="152.2"/>
		</defs>
		<clipPath id="SVGID_00000005268634652668511540000003323470753011382462_">
			<use xlink:href="#SVGID_1_"  style="overflow:visible;"/>
		</clipPath>
		
			<clipPath id="SVGID_00000151510635866990659690000014217512542487095208_" style="clip-path:url(#SVGID_00000005268634652668511540000003323470753011382462_);">
			<use xlink:href="#SVGID_00000061460216928893751080000016744697276224873382_"  style="overflow:visible;"/>
		</clipPath>
		<g style="clip-path:url(#SVGID_00000151510635866990659690000014217512542487095208_);">
			<defs>
				<rect id="SVGID_00000139984945484778236370000018015953456847487115_" x="95.9" y="223.2" width="70.2" height="90.4"/>
			</defs>
			<clipPath id="SVGID_00000080167133175096848190000017532656824684763809_">
				<use xlink:href="#SVGID_00000139984945484778236370000018015953456847487115_"  style="overflow:visible;"/>
			</clipPath>
			<g style="clip-path:url(#SVGID_00000080167133175096848190000017532656824684763809_);">
				
					<image style="overflow:visible;" width="40" height="51" xlink:href="CCCBA84B.jpg"  transform="matrix(1.9229 0 0 -1.9229 93.5555 318.1972)">
				</image>
			</g>
		</g>
	</g>
	<path class="st3" d="M101.5,276.8l-2.4-3.3l-0.6,1.2c-1.5,3-15.3,42.1-15.3,42.1h2.7l10.2-3l22.8-6.9
		C118.9,306.8,105.1,281.9,101.5,276.8L101.5,276.8z M101.5,276.8"/>
	<g>
		<defs>
			<rect id="SVGID_00000157988682412061528650000001274692315669621900_" x="69" y="223.9" width="661" height="152.2"/>
		</defs>
		<clipPath id="SVGID_00000143581156412993189340000002711302157102002083_">
			<use xlink:href="#SVGID_00000157988682412061528650000001274692315669621900_"  style="overflow:visible;"/>
		</clipPath>
		<path style="clip-path:url(#SVGID_00000143581156412993189340000002711302157102002083_);fill:#007BC1;" d="M87.3,316.4l9-2.7
			l-10.2,3L87.3,316.4z M87.3,316.4"/>
		<path style="clip-path:url(#SVGID_00000143581156412993189340000002711302157102002083_);fill:#099ADD;" d="M98.5,274.7l0.6-1.2
			c-4.2-6.7-8.9-13-14.1-18.9c-5.7-5.4-13.2-5.1-15.3,6.6c-0.3,1.1-0.5,2.2-0.6,3.3c-0.3,17.7,3,31.5,9.9,49c1.2,2.7,4.4,4.1,7.2,3
			h-2.7C83.4,316.4,97.3,277.7,98.5,274.7L98.5,274.7z M98.5,274.7"/>
	</g>
	<g>
		<defs>
			<path id="SVGID_00000035491062276934650750000015138766248251172791_" d="M193.1,336c-9-17.4-24.3-27-42.4-33.4h-1.8l-3.9,0.6
				l-24.9,7.5c0,0,0.9,25.2,0.9,29.1c0,3.9,0,2.7,0,4.8c6.3,4.2,13.2,8.1,18.6,11.1c10.5,6.4,22.6,9.7,34.8,9.6
				C193.1,364.8,201.5,352.5,193.1,336L193.1,336z M193.1,336"/>
		</defs>
		<defs>
			<rect id="SVGID_00000072961280385388878600000012714416578040718232_" x="69" y="223.9" width="661" height="152.2"/>
		</defs>
		<clipPath id="SVGID_00000068658931579464226450000010239159876490898085_">
			<use xlink:href="#SVGID_00000035491062276934650750000015138766248251172791_"  style="overflow:visible;"/>
		</clipPath>
		
			<clipPath id="SVGID_00000041294648555438558310000012962910753835611321_" style="clip-path:url(#SVGID_00000068658931579464226450000010239159876490898085_);">
			<use xlink:href="#SVGID_00000072961280385388878600000012714416578040718232_"  style="overflow:visible;"/>
		</clipPath>
		<g style="clip-path:url(#SVGID_00000041294648555438558310000012962910753835611321_);">
			<defs>
				<rect id="SVGID_00000099650392166078056250000016286020609194520725_" x="120" y="302.1" width="76.9" height="63.5"/>
			</defs>
			<clipPath id="SVGID_00000005261966793586135480000010055308111165056165_">
				<use xlink:href="#SVGID_00000099650392166078056250000016286020609194520725_"  style="overflow:visible;"/>
			</clipPath>
			<g style="clip-path:url(#SVGID_00000005261966793586135480000010055308111165056165_);">
				
					<image style="overflow:visible;" width="48" height="36" xlink:href="CCCBA849.jpg"  transform="matrix(1.9229 0 0 -1.9229 115.4959 367.5775)">
				</image>
			</g>
		</g>
	</g>
	<path class="st8" d="M121,339.9c0-3.9-0.9-29.1-0.9-29.1l-11.4,3.3l-19.5,5.4l-3.9,2.1l34.3,22.5l1.2,0.6
		C121,342.6,121,340.8,121,339.9L121,339.9z M121,339.9"/>
	<path class="st9" d="M85.5,321.2l3.9-2.1c6.3-1.8-1.2,0.3-1.2,0.3s-5.1,3-4.5,6.6c4.5,13.8,9,27.6,18.9,39.7l2.1,2.1
		c8.1,7.2,13.5,6.9,15.3-3.6c0.8-6.6,1.1-13.2,0.9-19.8l-1.2-0.6L85.5,321.2z M85.5,321.2"/>
</g>
</svg>
