<svg xmlns="http://www.w3.org/2000/svg" xmlns:xlink="http://www.w3.org/1999/xlink" width="500" zoomAndPan="magnify" viewBox="0 0 375 374.999991" height="500" preserveAspectRatio="xMidYMid meet" version="1.0"><defs><clipPath id="206fd06850"><path d="M 29 7 L 352.910156 7 L 352.910156 375 L 29 375 Z M 29 7 " clip-rule="nonzero"/></clipPath></defs><g clip-path="url(#206fd06850)"><path fill="#128f8b" d="M 328.371094 29.34375 C 313.820312 15.476562 294.316406 7.738281 274.214844 7.808594 C 253.460938 7.886719 233.957031 16.007812 219.273438 30.691406 L 191.269531 58.691406 L 163.96875 31.390625 C 133.5625 0.984375 84.042969 0.03125 53.335938 30.148438 C 22.324219 60.558594 22.140625 110.53125 52.785156 141.167969 L 201.054688 289.433594 C 217.976562 306.355469 218.765625 333.914062 202.171875 351.152344 C 185.199219 368.792969 157.011719 369 139.773438 351.761719 L 103.046875 315.039062 C 101.5 313.488281 101.34375 311.039062 102.671875 309.289062 C 108.097656 302.15625 111.097656 293.089844 110.425781 283.328125 C 109.105469 264.039062 93.335938 248.535156 74.03125 247.527344 C 51.675781 246.363281 33.140625 264.363281 33.4375 286.539062 C 33.710938 307.074219 50.449219 324.023438 70.976562 324.539062 C 77.601562 324.707031 83.859375 323.191406 89.363281 320.402344 C 91.035156 319.554688 93.0625 319.910156 94.386719 321.234375 L 132.328125 359.183594 C 142.898438 369.753906 156.777344 375.03125 170.65625 375.03125 C 184.53125 375.03125 198.417969 369.746094 208.980469 359.183594 C 230.113281 338.050781 230.113281 303.664062 208.980469 282.53125 L 60.214844 133.746094 C 33.851562 107.378906 33.851562 64.484375 60.214844 38.121094 C 86.578125 11.757812 129.484375 11.757812 155.839844 38.121094 L 187.421875 69.703125 C 188.480469 70.761719 189.878906 71.257812 191.269531 71.222656 C 192.660156 71.257812 194.0625 70.761719 195.121094 69.703125 L 226.070312 38.75 C 238.90625 25.914062 256.234375 18.355469 274.382812 18.320312 C 292.496094 18.285156 309.53125 25.320312 322.335938 38.121094 C 335.128906 50.921875 342.164062 67.933594 342.136719 86.039062 C 342.109375 104.195312 334.542969 121.539062 321.703125 134.382812 L 311.703125 144.386719 C 310.878906 145.210938 309.761719 145.671875 308.597656 145.671875 L 278.773438 145.671875 C 277.121094 145.671875 275.597656 144.738281 274.863281 143.257812 L 260.460938 114.453125 C 258.851562 111.222656 254.246094 111.222656 252.636719 114.453125 L 227.882812 163.917969 C 226.273438 167.144531 221.667969 167.144531 220.058594 163.917969 L 211.605469 147.003906 C 209.996094 143.773438 205.394531 143.773438 203.785156 147.003906 L 195.332031 163.910156 C 193.71875 167.136719 189.117188 167.136719 187.507812 163.910156 L 162.769531 114.433594 C 161.160156 111.203125 156.558594 111.203125 154.945312 114.433594 L 140.542969 143.238281 C 139.800781 144.71875 138.285156 145.65625 136.632812 145.65625 L 110.242188 145.65625 C 107.363281 145.65625 104.859375 147.871094 104.773438 150.75 C 104.683594 153.722656 107.066406 156.15625 110.023438 156.15625 L 143.125 156.15625 C 144.777344 156.15625 146.300781 155.21875 147.035156 153.742188 L 154.945312 137.910156 C 156.558594 134.683594 161.160156 134.683594 162.769531 137.910156 L 187.507812 187.386719 C 189.117188 190.613281 193.71875 190.613281 195.332031 187.386719 L 203.785156 170.480469 C 205.394531 167.25 209.996094 167.25 211.605469 170.480469 L 220.058594 187.394531 C 221.667969 190.625 226.273438 190.625 227.882812 187.394531 L 252.621094 137.917969 C 254.230469 134.699219 258.832031 134.691406 260.441406 137.917969 L 268.363281 153.75 C 269.105469 155.226562 270.621094 156.164062 272.273438 156.164062 L 312.570312 156.164062 C 312.570312 156.164062 312.570312 156.164062 312.578125 156.164062 L 312.585938 156.164062 C 312.910156 156.164062 313.226562 156.128906 313.53125 156.078125 C 313.550781 156.078125 313.574219 156.066406 313.59375 156.066406 C 313.898438 156.007812 314.207031 155.917969 314.496094 155.804688 C 314.519531 155.796875 314.546875 155.789062 314.574219 155.78125 C 314.863281 155.65625 315.140625 155.507812 315.40625 155.34375 C 315.429688 155.324219 315.457031 155.316406 315.484375 155.296875 C 315.761719 155.105469 316.027344 154.894531 316.269531 154.660156 C 316.28125 154.652344 316.28125 154.652344 316.289062 154.640625 L 328.992188 141.9375 C 344.027344 126.902344 352.804688 106.539062 352.636719 85.277344 C 352.460938 64.011719 343.84375 44.089844 328.371094 29.34375 Z M 43.9375 286.011719 C 43.9375 270.550781 56.523438 257.976562 71.976562 257.976562 C 87.429688 257.976562 100.011719 270.558594 100.011719 286.011719 C 100.011719 301.476562 87.429688 314.050781 71.976562 314.050781 C 56.523438 314.050781 43.9375 301.476562 43.9375 286.011719 Z M 43.9375 286.011719 " fill-opacity="1" fill-rule="nonzero"/></g></svg>